<?xml version="1.0" encoding="UTF-8" standalone="no"?>
<svg id="svg2" xmlns="http://www.w3.org/2000/svg" height="280.88mm" width="281.76mm" version="1.1" xmlns:cc="http://creativecommons.org/ns#" xmlns:dc="http://purl.org/dc/elements/1.1/" viewBox="0 0 998.37738 995.2413">
<g id="layer1" transform="translate(679.96 312.86)">
<path id="path4138" d="m-304-312.85c-28.306-0.63933-56.295 30.095-45.384 59.051 9.941 22.046-31.466 33.404-48.035 43.762-58.499 22.387-97.839 72.838-142.39 114.23-38.547 38.99-83.599 74.322-105.06 126.5-15.246 34.535-21.84 72.362-21.159 109.4 0.51501 40.715 8.594 81.016 20.584 119.82 0.91034-19.377-6.3635-39.9-0.0439-59.758 12.549-58.196 44.93-115.47 96.469-147.31 22.629-13.759 52.31-16.008 75.365-1.9712 10.951 3.4994 22.108 2.6065 32.188-1.3423l620.29 620.29c16.449 16.449 42.933 16.449 59.382 0l38.545-38.545c16.449-16.449 16.449-42.933 0-59.382l-619.31-619.32c12.348-19.881 5.6153-44.305 3.584-66.219 4.2-31.366 34.975-47.752 56.677-66.655 12.179 15.186 31.661 27.07 51.477 18.768 30.238-8.7764 44.873-53.124 18.545-74.178-24.347-23.567-47.181-48.885-72.541-71.284-6.0915-3.8965-12.639-5.7153-19.171-5.8628zm454.8 31.312c-2.096 0.001-4.1918 0.0416-6.2889 0.12172-73.419 2.806-136.45 53.111-155.46 124.08-7.7631 29.243-7.464 60.042 0.86556 89.129l-159.33 159.33 97.928 97.93 151.31-151.32c8.9202 4.1964 18.193 7.5974 27.711 10.164 89.396 23.954 181.28-29.098 205.24-118.49 3.7618-14.135 5.6566-28.702 5.6363-43.329l-121.21 69.982-83.787-145.12 121.08-69.904c-12.613-7.3469-26.133-13.014-40.215-16.858-14.189-3.8024-28.809-5.7198-43.481-5.7107zm-452.76 505.21-190.74 190.74c-4.256-1.6559-8.5914-3.1003-12.99-4.3278-73.879-19.795-149.82 24.048-169.61 97.927-3.1093 11.682-4.6756 23.721-4.6592 35.809l100.17-57.834 69.245 119.94-100.07 57.773c10.426 6.0714 21.6 10.754 33.24 13.93 73.88 19.795 149.82-24.05 169.61-97.93 4.9726-18.689 5.9758-38.213 2.9449-57.313l200.79-200.79-97.927-97.927z"/>
</g>
</svg>
